# xmcd
#
# Track frame offsets:
#	150
#	19212
#	38575
#	56955
#	76797
#	98550
#	118790
#	136662
#	150597
#	171210
#	191762
#	208972
#
# Disc length: 3043 seconds
#
# Revision: 2
# Processed by: cddbd v1.5.2PL0 Copyright (c) Steve Scherf et al.
# Submitted via: EasyCDDAExtractor 10.0.5.1
#
DISCID=9b0be10c
DTITLE=양파 3집 - 개구리 연못속의... 날다
DYEAR=1999
DGENRE=Ballad
TTITLE0=그녀안의 나
TTITLE1=오늘만
TTITLE2=a'ddio
TTITLE3=愛易不非
TTITLE4=나쁜혈통
TTITLE5=평온
TTITLE6=지구에서 보낸 한철
TTITLE7=머뭇 머뭇
TTITLE8=그대 아니었다면
TTITLE9=나비의 비행
TTITLE10=요술공주
TTITLE11=missing you
EXTD=YEAR: 1999
EXTT0=
EXTT1=
EXTT2=
EXTT3=
EXTT4=
EXTT5=
EXTT6=
EXTT7=
EXTT8=
EXTT9=
EXTT10=
EXTT11=
PLAYORDER=
